<mxfile host="app.diagrams.net" modified="2021-09-29T15:47:46.353Z" agent="5.0 (Windows)" etag="fMWwZ-q7nCbODPe0PDx0" version="15.3.8" type="github">
  <diagram id="3-LBbgLK8UY7JytMnbPZ" name="Page-1">
    <mxGraphModel dx="1209" dy="1121" grid="1" gridSize="10" guides="1" tooltips="1" connect="1" arrows="1" fold="1" page="1" pageScale="1" pageWidth="850" pageHeight="1100" math="0" shadow="0">
      <root>
        <mxCell id="0" />
        <mxCell id="1" parent="0" />
        <mxCell id="-sjq69Uk94YoofclQXJc-1" value="" style="strokeWidth=1;shadow=0;dashed=0;align=center;html=1;shape=mxgraph.mockup.containers.browserWindow;rSize=0;strokeColor=#666666;strokeColor2=#008cff;strokeColor3=#c4c4c4;mainText=,;recursiveResize=0;fillColor=#f5f5f5;fontColor=#333333;" parent="1" vertex="1">
          <mxGeometry width="850" height="1100" as="geometry" />
        </mxCell>
        <mxCell id="-sjq69Uk94YoofclQXJc-2" value="Home" style="strokeWidth=1;shadow=0;dashed=0;align=center;html=1;shape=mxgraph.mockup.containers.anchor;fontSize=17;fontColor=#666666;align=left;" parent="-sjq69Uk94YoofclQXJc-1" vertex="1">
          <mxGeometry x="60" y="12" width="110" height="26" as="geometry" />
        </mxCell>
        <mxCell id="-sjq69Uk94YoofclQXJc-3" value="https://ceonetweavers.org/" style="strokeWidth=1;shadow=0;dashed=0;align=center;html=1;shape=mxgraph.mockup.containers.anchor;rSize=0;fontSize=17;fontColor=#666666;align=left;" parent="-sjq69Uk94YoofclQXJc-1" vertex="1">
          <mxGeometry x="130" y="60" width="250" height="26" as="geometry" />
        </mxCell>
        <mxCell id="cxTF4-qD0s4VEBOTPt8d-14" value="&lt;div&gt;Footer&lt;/div&gt;" style="rounded=0;whiteSpace=wrap;html=1;strokeColor=default;strokeWidth=1;fillColor=none;align=left;verticalAlign=top;" parent="-sjq69Uk94YoofclQXJc-1" vertex="1">
          <mxGeometry y="900" width="850" height="200" as="geometry" />
        </mxCell>
        <mxCell id="cxTF4-qD0s4VEBOTPt8d-16" value="" style="group" parent="-sjq69Uk94YoofclQXJc-1" vertex="1" connectable="0">
          <mxGeometry y="110" width="850" height="110" as="geometry" />
        </mxCell>
        <mxCell id="cxTF4-qD0s4VEBOTPt8d-1" value="Header" style="rounded=0;whiteSpace=wrap;html=1;align=left;verticalAlign=top;" parent="cxTF4-qD0s4VEBOTPt8d-16" vertex="1">
          <mxGeometry width="850" height="110" as="geometry" />
        </mxCell>
        <mxCell id="cxTF4-qD0s4VEBOTPt8d-9" value="Logo" style="verticalLabelPosition=bottom;shadow=0;dashed=0;align=center;html=1;verticalAlign=top;strokeWidth=1;shape=mxgraph.mockup.graphics.simpleIcon;strokeColor=#999999;fillColor=#E6E6E6;" parent="cxTF4-qD0s4VEBOTPt8d-16" vertex="1">
          <mxGeometry x="15" y="30" width="200" height="50" as="geometry" />
        </mxCell>
        <mxCell id="cxTF4-qD0s4VEBOTPt8d-12" value="Menu" style="verticalLabelPosition=bottom;shadow=0;dashed=0;align=center;html=1;verticalAlign=top;strokeWidth=1;shape=mxgraph.mockup.graphics.simpleIcon;strokeColor=#999999;fillColor=#E6E6E6;" parent="cxTF4-qD0s4VEBOTPt8d-16" vertex="1">
          <mxGeometry x="260" y="30" width="480" height="50" as="geometry" />
        </mxCell>
        <mxCell id="cxTF4-qD0s4VEBOTPt8d-13" value="Members&#39; Area" style="verticalLabelPosition=bottom;shadow=0;dashed=0;align=center;html=1;verticalAlign=top;strokeWidth=1;shape=mxgraph.mockup.graphics.simpleIcon;strokeColor=#999999;fillColor=#E6E6E6;" parent="cxTF4-qD0s4VEBOTPt8d-16" vertex="1">
          <mxGeometry x="760" y="30" width="70" height="50" as="geometry" />
        </mxCell>
        <mxCell id="4350LJryet-j8qvg0Nxp-3" value="Copyrights " style="strokeWidth=1;shadow=0;dashed=0;align=center;html=1;shape=mxgraph.mockup.text.textBox;fontColor=#666666;align=left;fontSize=17;spacingLeft=4;spacingTop=-3;strokeColor=#666666;mainText=" vertex="1" parent="-sjq69Uk94YoofclQXJc-1">
          <mxGeometry y="1070" width="850" height="30" as="geometry" />
        </mxCell>
        <mxCell id="4350LJryet-j8qvg0Nxp-5" value="Contact Information" style="verticalLabelPosition=bottom;shadow=0;dashed=0;align=center;html=1;verticalAlign=top;strokeWidth=1;shape=mxgraph.mockup.graphics.simpleIcon;strokeColor=#999999;fillColor=#E6E6E6;" vertex="1" parent="-sjq69Uk94YoofclQXJc-1">
          <mxGeometry x="40" y="940" width="240" height="70" as="geometry" />
        </mxCell>
        <mxCell id="4350LJryet-j8qvg0Nxp-6" value="Social Networks" style="verticalLabelPosition=bottom;shadow=0;dashed=0;align=center;html=1;verticalAlign=top;strokeWidth=1;shape=mxgraph.mockup.graphics.simpleIcon;strokeColor=#999999;fillColor=#E6E6E6;" vertex="1" parent="-sjq69Uk94YoofclQXJc-1">
          <mxGeometry x="295" y="940" width="250" height="70" as="geometry" />
        </mxCell>
        <mxCell id="4350LJryet-j8qvg0Nxp-7" value="Mail Address" style="verticalLabelPosition=bottom;shadow=0;dashed=0;align=center;html=1;verticalAlign=top;strokeWidth=1;shape=mxgraph.mockup.graphics.simpleIcon;strokeColor=#999999;fillColor=#E6E6E6;" vertex="1" parent="-sjq69Uk94YoofclQXJc-1">
          <mxGeometry x="560" y="940" width="250" height="70" as="geometry" />
        </mxCell>
        <mxCell id="4350LJryet-j8qvg0Nxp-9" value="Page" style="html=1;labelPosition=center;verticalLabelPosition=middle;verticalAlign=middle;align=center;fontSize=12;outlineConnect=0;spacingTop=-6;sketch=0;shape=mxgraph.sitemap.page;" vertex="1" parent="-sjq69Uk94YoofclQXJc-1">
          <mxGeometry y="240" width="850" height="640" as="geometry" />
        </mxCell>
      </root>
    </mxGraphModel>
  </diagram>
</mxfile>
